<svg width="24" height="24" viewBox="0 0 24 24" fill="none" xmlns="http://www.w3.org/2000/svg">
    <path opacity="0.4"
        d="M21.97 6.41V12.91H2V6.41C2 3.98 3.98 2 6.41 2H17.56C19.99 2 21.97 3.98 21.97 6.41Z"
        fill="#425A8B" />
    <rect x="4" y="7.5" width="16" height="9" stroke="#425A8B" stroke-width="2"
        stroke-linecap="round" stroke-linejoin="round" />
    <circle cx="12" cy="12" r="3" fill="none" stroke="#425A8B" stroke-width="2"
        stroke-linecap="round" stroke-linejoin="round" />
    <path d="M12 15V18" stroke="#425A8B" stroke-width="2" stroke-linecap="round"
        stroke-linejoin="round" />
    <path d="M7 5.5H5.5V4C5.5 3.45 5.95 3 6.5 3H7.5C8.05 3 8.5 3.45 8.5 4V5.5H7Z" fill="#425A8B" />
    <path d="M17 5.5H18.5V4C18.5 3.45 18.05 3 17.5 3H16.5C15.95 3 15.5 3.45 15.5 4V5.5H17Z"
        fill="#425A8B" />
    <rect x="10" y="20" width="4" height="2" rx="1" fill="#425A8B" />
</svg>
  