<svg width="24" height="24" viewBox="0 0 24 24" fill="none" xmlns="http://www.w3.org/2000/svg">
    <path opacity="0.4"
        d="M21.97 6.41V12.91H2V6.41C2 3.98 3.98 2 6.41 2H17.56C19.99 2 21.97 3.98 21.97 6.41Z"
        fill="#425A8B" />
    <path
        d="M17.86 17.57H6.14C5.78 17.57 5.5 17.29 5.5 16.93V7.07C5.5 6.71 5.78 6.43 6.14 6.43H17.86C18.22 6.43 18.5 6.71 18.5 7.07V16.93C18.5 17.29 18.22 17.57 17.86 17.57ZM8.47 8.47C8.47 8.13 8.75 7.86 9.09 7.86H14.91C15.25 7.86 15.53 8.13 15.53 8.47V14.14C15.53 14.48 15.25 14.75 14.91 14.75H9.09C8.75 14.75 8.47 14.48 8.47 14.14V8.47ZM11.5 16.07C11.5 16.43 11.78 16.71 12.14 16.71H13.86C14.22 16.71 14.5 16.43 14.5 16.07V15.93C14.5 15.57 14.22 15.29 13.86 15.29H12.14C11.78 15.29 11.5 15.57 11.5 15.93V16.07Z"
        fill="#425A8B" />
</svg>